<?xml version="1.0" encoding="UTF-8" standalone="no"?>
<svg
   xmlns="http://www.w3.org/2000/svg"
   id="svg7594"
viewBox="0 0 28 32"
   version="1.0">
  <defs
     id="defs7596">
    <linearGradient
       id="linearGradient2202">
      <stop
         offset="0"
         style="stop-color:#797979;stop-opacity:1;"
         id="stop2204" />
      <stop
         offset="1"
         style="stop-color:#cbcbcb;stop-opacity:1;"
         id="stop2206" />
    </linearGradient>
  </defs>
  <g
     id="layer1">
    <path
       style="opacity:1;fill:#888888;fill-opacity:1;stroke:none;stroke-width:0.69999999;stroke-linecap:round;stroke-linejoin:round;stroke-miterlimit:4;stroke-dasharray:none"
       d=""
       id="path8460" />
    <path
       style="opacity:1;fill:#888888;fill-opacity:1;stroke:none;stroke-width:0.69999999;stroke-linecap:round;stroke-linejoin:round;stroke-miterlimit:4;stroke-dasharray:none"
       d=""
       id="path8462" />
    <path
       style="opacity:1;fill:#888888;fill-opacity:1;stroke:none;stroke-width:0.69999999;stroke-linecap:round;stroke-linejoin:round;stroke-miterlimit:4;stroke-dasharray:none"
       d=""
       id="path8464" />
    <g
       id="g11262"
       transform="translate(-279.1135,-276.31506)">
      <g
         id="g8688"
         transform="translate(6.9953253e-3,-2.8574331e-3)">
        <path
           style="fill:#888;fill-opacity:1;fill-rule:evenodd;stroke:none;stroke-width:1px;stroke-linecap:butt;stroke-linejoin:miter;stroke-opacity:1"
           d="M 287.09994,302.44073 C 287.09994,302.44073 287.09994,297.44073 295.13386,297.44073 C 303.16778,297.44073 303.16778,302.44073 303.16778,302.44073 C 303.16778,302.44073 303.16778,304.85144 295.13386,304.85144 C 287.09994,304.85144 287.09994,302.70859 287.09994,302.44073 z"
           id="path26233" />
        <path
           id="path26235"
           d="M 294.375,296.8125 C 291.08202,296.72398 289.00376,298.07949 287.84375,299.46875 C 286.69809,300.84083 286.38477,302.23676 286.375,302.28125 C 286.375,302.28125 286.37527,302.31121 286.375,302.3125 C 286.36911,302.34103 286.30625,302.65041 286.40625,303 C 286.51079,303.36545 286.76387,303.78029 287.28125,304.15625 C 288.31601,304.90816 290.29429,305.53043 294.375,305.5625 C 298.45905,305.59459 300.74833,304.94965 302.0625,304.25 C 302.71959,303.90018 303.12638,303.5583 303.375,303.25 C 303.62362,302.9417 303.71875,302.625 303.71875,302.625 L 303.75,302.46875 L 303.75,302.34375 C 303.75,302.34375 303.52257,300.88043 302.21875,299.5 C 300.91857,298.12343 298.53333,296.81983 294.40625,296.8125 L 294.375,296.8125 z M 294.34375,298.0625 L 294.375,298.0625 C 298.26048,298.0625 300.22381,299.25543 301.28125,300.375 C 302.18763,301.33463 302.39113,302.10716 302.4375,302.34375 C 302.42746,302.36213 302.45058,302.34378 302.375,302.4375 C 302.24027,302.60456 301.9923,302.87752 301.46875,303.15625 C 300.42166,303.71371 298.32488,304.31229 294.375,304.28125 C 290.42179,304.25018 288.68304,303.62987 288.03125,303.15625 C 287.70536,302.91944 287.6508,302.74643 287.625,302.65625 C 287.5992,302.56607 287.59375,302.59375 287.59375,302.59375 L 287.59375,302.5625 C 287.59375,302.5625 287.84998,301.434 288.8125,300.28125 C 289.77502,299.1285 291.38221,297.97422 294.34375,298.0625 z"
           style="fill:#000000;fill-opacity:1;fill-rule:evenodd;stroke:none;stroke-width:1.26758981px;stroke-linecap:butt;stroke-linejoin:miter;stroke-opacity:1" />
        <path
           style="fill:#888;fill-opacity:1;stroke:none;stroke-width:0.99999964;stroke-linecap:butt;stroke-linejoin:miter;stroke-miterlimit:4;stroke-opacity:1"
           id="path8674"
           d="M 299.96859,295.37266 C 296.38059,301.58726 287.05397,302.70099 283.46863,300.63099 C 279.88329,298.56099 292.92116,299.41701 296.50916,293.20242 C 300.09716,286.98782 292.88329,276.30266 296.46863,278.37266 C 300.05397,280.44266 303.55659,289.15806 299.96859,295.37266 z" />
        <path
           id="path2900"
           d="M 296.21875,277.71875 C 295.99528,277.66645 295.72957,277.65302 295.5,277.8125 C 295.27043,277.97198 295.18555,278.22817 295.15625,278.4375 C 295.12695,278.64683 295.12348,278.86564 295.15625,279.09375 C 295.28734,280.00618 295.76925,281.29402 296.21875,282.875 C 297.11776,286.03695 297.94066,290.15708 296.28125,293.03125 C 294.62334,295.90283 290.60757,297.2478 287.375,298.0625 C 285.75872,298.46985 284.37017,298.71637 283.5,299.0625 C 283.28246,299.14903 283.10619,299.24601 282.9375,299.375 C 282.76881,299.50399 282.59293,299.72108 282.5625,300 C 282.53207,300.27892 282.6556,300.51753 282.8125,300.6875 C 282.9694,300.85747 283.15699,300.98109 283.40625,301.125 C 285.39513,302.27328 288.70508,302.4769 292.03125,301.65625 C 295.35742,300.8356 298.71242,298.94606 300.59375,295.6875 C 302.47358,292.43154 302.49539,288.56109 301.59375,285.25 C 300.69211,281.93891 298.90101,279.15167 296.90625,278 C 296.65756,277.85642 296.44222,277.77105 296.21875,277.71875 z M 296.15625,278.75 C 296.23363,278.78101 296.2817,278.80309 296.40625,278.875 C 297.99683,279.79332 299.776,282.41349 300.625,285.53125 C 301.474,288.64901 301.45817,292.22886 299.75,295.1875 C 298.04333,298.14354 294.94297,299.91513 291.8125,300.6875 C 288.68203,301.45987 285.50271,301.20297 283.90625,300.28125 C 283.77726,300.20678 283.75195,300.14548 283.6875,300.09375 C 283.74627,300.06251 283.78429,300.03608 283.875,300 C 284.55318,299.73024 285.98148,299.44547 287.625,299.03125 C 290.91203,298.20282 294.92876,296.65121 296.85885,293.3082 C 298.78745,289.96779 298.07085,285.84178 297.15625,282.625 C 296.69895,281.01661 296.25726,279.64056 296.15625,278.9375 C 296.14362,278.84962 296.1586,278.81181 296.15625,278.75 z"
           style="fill:#000000;fill-opacity:1;stroke:none;stroke-width:0.99999964;stroke-linecap:butt;stroke-linejoin:miter;stroke-miterlimit:4;stroke-opacity:1" />
        <path
           id="path8672"
           d="M 296.64958,293.11339 C 293.06158,299.32798 287.23974,302.69171 283.65439,300.62171 C 280.06905,298.55171 280.07121,291.82798 283.65921,285.61339 C 287.24721,279.39879 293.06905,276.03506 296.65439,278.10506 C 300.23974,280.17506 300.23758,286.89879 296.64958,293.11339 z"
           style="fill:#666;fill-opacity:1;stroke:none;stroke-width:0.99999964;stroke-linecap:butt;stroke-linejoin:miter;stroke-miterlimit:4;stroke-opacity:1" />
        <path
           id="path3781"
           d="M 296.91141,277.7605 C 294.91569,276.60827 292.36352,276.96261 289.91614,278.37666 C 287.46876,279.79071 285.06623,282.27695 283.23321,285.45183 C 281.40019,288.62672 280.46392,291.92343 280.46301,294.74995 C 280.4621,297.57646 281.41569,299.99094 283.41141,301.14317 C 285.40713,302.2954 287.97492,301.91399 290.4223,300.49995 C 292.86968,299.0859 295.25659,296.62672 297.08961,293.45183 C 298.92263,290.27695 299.87452,286.95318 299.87543,284.12666 C 299.87634,281.30014 298.90713,278.91273 296.91141,277.7605 z M 296.41141,278.62652 C 298.00103,279.54429 298.86849,281.51567 298.86765,284.12217 C 298.86682,286.72867 297.97856,289.91212 296.22358,292.95183 C 294.4686,295.99155 292.17141,298.32546 289.91453,299.62943 C 287.65765,300.9334 285.50103,301.19492 283.91141,300.27715 C 282.32178,299.35938 281.46995,297.36093 281.47079,294.75443 C 281.47162,292.14793 282.34425,288.99155 284.09923,285.95183 C 285.85421,282.91212 288.16703,280.55114 290.42391,279.24717 C 292.68079,277.9432 294.82178,277.70875 296.41141,278.62652 z"
           style="fill:#000000;fill-opacity:1;stroke:none;stroke-width:1;stroke-linecap:butt;stroke-linejoin:miter;stroke-miterlimit:4;stroke-opacity:1" />
        <path
           id="path8662"
           d="M 287.9966,288.21617 C 287.4446,289.17226 286.53102,289.67942 285.95737,289.34822 C 285.38371,289.01702 285.36614,287.97226 285.91814,287.01617 C 286.47014,286.06008 287.38371,285.55292 287.95737,285.88412 C 288.53102,286.21532 288.5486,287.26008 287.9966,288.21617 z"
           style="fill:#aaa;fill-opacity:1;stroke:none;stroke-width:0.77459639;stroke-linecap:butt;stroke-linejoin:miter;stroke-miterlimit:4;stroke-opacity:1" />
        <path
           id="path8660"
           d="M 288.20102,285.6097 C 287.76296,285.35679 287.2398,285.42515 286.79477,285.6722 C 286.34974,285.91925 285.94595,286.32721 285.63852,286.8597 C 285.33109,287.39219 285.16121,287.97576 285.16977,288.4847 C 285.17833,288.99364 285.38796,289.48179 285.82602,289.7347 C 286.26408,289.98761 286.78723,289.88801 287.23227,289.64095 C 287.67731,289.39389 288.08109,288.98595 288.38852,288.45345 C 288.69595,287.92096 288.83458,287.36864 288.82602,286.8597 C 288.81746,286.35076 288.63909,285.86261 288.20102,285.6097 z M 287.82602,286.26595 C 287.96162,286.34423 288.07038,286.52444 288.07602,286.8597 C 288.08166,287.19496 287.94559,287.65485 287.70102,288.07845 C 287.45645,288.50206 287.15044,288.82195 286.85727,288.9847 C 286.5641,289.14745 286.33661,289.12549 286.20102,289.0472 C 286.06543,288.96892 285.95666,288.78871 285.95102,288.45345 C 285.94538,288.11819 286.0502,287.68956 286.29477,287.26595 C 286.53934,286.84234 286.8766,286.52245 287.16977,286.3597 C 287.46294,286.19695 287.69042,286.18766 287.82602,286.26595 z"
           style="fill:#000000;fill-opacity:1;stroke:none;stroke-width:0.77459639;stroke-linecap:butt;stroke-linejoin:miter;stroke-miterlimit:4;stroke-opacity:1" />
        <path
           id="path4666"
           d="M 288.4375,288.03125 L 287.90625,288.875 L 295.90625,293.875 L 296.4375,293.03125 L 288.4375,288.03125 z"
           style="fill:#000000;fill-opacity:1;fill-rule:evenodd;stroke:none;stroke-width:1px;stroke-linecap:butt;stroke-linejoin:miter;stroke-opacity:1" />
      </g>
    </g>
  </g>
</svg>
